HIERARCHY
ROOT Hips
{
 OFFSET 0.000000 0.000000 0.000000
 CHANNELS 6 Xposition Yposition Zposition Yrotation Xrotation Zrotation
 JOINT Chest
 {
  OFFSET 0.000000 9.585900 0.002600
  CHANNELS 3 Yrotation Xrotation Zrotation
  JOINT Chest2
  {
   OFFSET 0.000000 9.601200 -0.005300
   CHANNELS 3 Yrotation Xrotation Zrotation
   JOINT Chest3
   {
    OFFSET 0.000000 9.561800 0.000000
    CHANNELS 3 Yrotation Xrotation Zrotation
    JOINT Chest4
    {
     OFFSET 0.000000 9.552100 0.000000
     CHANNELS 3 Yrotation Xrotation Zrotation
     JOINT Neck
     {
      OFFSET 0.000000 14.453000 0.000000
      CHANNELS 3 Yrotation Xrotation Zrotation
      JOINT Head
      {
       OFFSET 0.000000 8.936500 -0.011300
       CHANNELS 3 Yrotation Xrotation Zrotation
       End Site
       {
        OFFSET 0.000000 17.073600 -0.006000
       }
      }
     }
     JOINT RightCollar
     {
      OFFSET -2.921100 9.558500 0.000000
      CHANNELS 3 Yrotation Xrotation Zrotation
      JOINT RightShoulder
      {
       OFFSET -13.519700 0.000000 0.000000
       CHANNELS 3 Yrotation Xrotation Zrotation
       JOINT RightElbow
       {
        OFFSET 0.000000 -29.696600 0.000000
        CHANNELS 3 Yrotation Xrotation Zrotation
        JOINT RightWrist
        {
         OFFSET 0.000000 -24.004700 0.000000
         CHANNELS 3 Yrotation Xrotation Zrotation
         End Site
         {
          OFFSET 0.000000 -17.728500 0.000000
         }
        }
       }
      }
     }
     JOINT LeftCollar
     {
      OFFSET 2.921100 9.558500 0.000000
      CHANNELS 3 Yrotation Xrotation Zrotation
      JOINT LeftShoulder
      {
       OFFSET 13.519700 0.000000 0.000000
       CHANNELS 3 Yrotation Xrotation Zrotation
       JOINT LeftElbow
       {
        OFFSET 0.000000 -29.696600 0.000000
        CHANNELS 3 Yrotation Xrotation Zrotation
        JOINT LeftWrist
        {
         OFFSET 0.000000 -24.004700 0.000000
         CHANNELS 3 Yrotation Xrotation Zrotation
         End Site
         {
          OFFSET 0.000000 -17.728500 0.000000
         }
        }
       }
      }
     }
    }
   }
  }
 }
 JOINT RightHip
 {
  OFFSET -7.771700 -0.012900 -0.001300
  CHANNELS 3 Yrotation Xrotation Zrotation
  JOINT RightKnee
  {
   OFFSET 0.000000 -40.869800 0.001200
   CHANNELS 3 Yrotation Xrotation Zrotation
   JOINT RightAnkle
   {
    OFFSET 0.000000 -39.717900 0.002100
    CHANNELS 3 Yrotation Xrotation Zrotation
    JOINT RightToe
    {
     OFFSET 0.000000 -4.965400 11.033500
     CHANNELS 3 Yrotation Xrotation Zrotation
     End Site
     {
      OFFSET 0.000000 -1.423100 5.872300
     }
    }
   }
  }
 }
 JOINT LeftHip
 {
  OFFSET 7.771700 -0.012900 -0.001300
  CHANNELS 3 Yrotation Xrotation Zrotation
  JOINT LeftKnee
  {
   OFFSET 0.000000 -40.869800 0.001200
   CHANNELS 3 Yrotation Xrotation Zrotation
   JOINT LeftAnkle
   {
    OFFSET 0.000000 -39.717900 0.002100
    CHANNELS 3 Yrotation Xrotation Zrotation
    JOINT LeftToe
    {
     OFFSET 0.000000 -4.965400 11.033500
     CHANNELS 3 Yrotation Xrotation Zrotation
     End Site
     {
      OFFSET 0.000000 -1.423100 5.872300
     }
    }
   }
  }
 }
}
MOTION
Frames: 6
Frame Time: 0.008333
-39.155301 52.991004 -4.962843 -175.703898 -15.158106 -3.482253 -0.218907 15.504424 2.251581 -0.031849 1.422916 0.184661 -0.070399 2.496758 0.383055 -0.164566 13.752544 2.046582 -1.432835 18.066368 -4.834625 -0.445987 -6.706667 -4.886155 1.063200 -1.409740 2.561009 2.701865 -12.327245 -9.550219 -98.584968 -75.874353 134.191261 -7.752955 -26.090429 -14.470823 -7.235356 -1.739400 0.263408 -0.995943 -9.844821 8.485067 50.527182 -63.467959 -91.330875 1.459660 -9.958576 8.169745 2.930502 -63.307845 9.081441 163.470568 86.594911 162.773821 -13.314647 -21.672195 11.232311 0.018076 0.267908 -0.510306 2.594191 -61.970634 -3.306097 119.267889 77.845489 117.523523 -6.570404 -19.518407 -0.707786 -0.015204 0.062065 0.018461
-39.152581 52.988664 -4.963006 -175.713463 -15.185906 -3.479426 -0.197577 15.475336 2.216737 -0.037710 1.424802 0.181640 -0.062143 2.476097 0.365374 -0.146156 13.759767 2.029393 -1.463409 17.987282 -4.825840 -0.469027 -6.731784 -4.839278 1.029596 -1.403078 2.568172 2.646615 -12.215463 -9.367978 -98.764237 -75.950022 134.406575 -7.752544 -26.109468 -14.481375 -7.243235 -1.682298 0.328176 -0.963901 -9.866985 8.517319 50.533993 -63.430988 -91.419106 1.464435 -10.016415 8.120210 2.869683 -63.278713 9.157995 163.780331 86.589502 163.066409 -13.477034 -21.742714 11.354352 0.012105 0.274580 -0.472225 2.643122 -61.944322 -3.314347 119.314686 77.859873 117.572264 -6.579507 -19.526986 -0.701234 -0.013637 0.064591 0.020434
-39.148789 52.985333 -4.960234 -175.718039 -15.199390 -3.477931 -0.196220 15.390942 2.142659 -0.035471 1.496717 0.234135 -0.059575 2.447747 0.338773 -0.125986 13.752668 1.997338 -1.489518 17.905320 -4.810503 -0.486950 -6.762866 -4.789843 1.002724 -1.398294 2.575602 2.620859 -12.112595 -9.213787 -98.978115 -76.009491 134.633510 -7.751992 -26.130556 -14.519833 -7.163328 -1.730216 0.349794 -1.024353 -9.784464 8.591495 50.706316 -63.412497 -91.737312 1.477549 -9.996364 8.155449 2.798736 -63.260412 9.210440 163.724500 86.575621 162.968972 -13.435727 -21.832942 11.432265 0.014931 0.273711 -0.439044 2.672440 -61.931613 -3.316361 119.341941 77.870764 117.596644 -6.579869 -19.542973 -0.707492 -0.020192 0.076584 0.029815
-39.147520 52.981795 -4.957972 -175.724903 -15.220802 -3.456311 -0.196626 15.365975 2.084352 -0.035719 1.517989 0.250451 -0.052958 2.420595 0.311173 -0.104899 13.746388 1.962231 -1.505029 17.849410 -4.774443 -0.511417 -6.826140 -4.746209 0.977291 -1.393197 2.586552 2.607559 -12.014682 -9.076631 -99.066123 -76.061328 134.707030 -7.731226 -26.177961 -14.537924 -7.113765 -1.740497 0.378683 -1.083927 -9.718276 8.649921 50.832801 -63.408747 -91.952747 1.485487 -10.000546 8.155845 2.635850 -63.223627 9.320782 164.045033 86.565314 163.185871 -13.294840 -21.924593 11.481699 0.020351 0.266408 -0.404373 2.734582 -61.912061 -3.351665 119.392909 77.884836 117.648906 -6.587023 -19.569232 -0.706749 -0.014579 0.096738 0.029130
-39.142314 52.979442 -4.960059 -175.755066 -15.271853 -3.449886 -0.164261 15.392587 2.066951 -0.035035 1.492009 0.229605 -0.045593 2.419066 0.300588 -0.082863 13.740076 1.925844 -1.518873 17.791480 -4.732941 -0.535267 -6.891879 -4.697052 0.951831 -1.387355 2.600663 2.601035 -11.913727 -8.944973 -99.140042 -76.121643 134.759681 -7.717956 -26.232625 -14.534395 -7.086324 -1.733989 0.415619 -1.125702 -9.666980 8.705902 50.923762 -63.404883 -92.117574 1.493219 -10.012350 8.141557 2.601256 -63.171674 9.367594 164.312178 86.556518 163.419809 -13.231774 -22.003503 11.533136 0.022064 0.258252 -0.364716 2.771578 -61.866103 -3.330095 119.453577 77.899164 117.707613 -6.599575 -19.568136 -0.708831 -0.006217 0.090638 0.035280
-39.137949 52.975910 -4.958654 -175.775004 -15.302649 -3.435992 -0.144485 15.400104 2.038339 -0.030940 1.467571 0.205390 -0.043045 2.416317 0.293703 -0.061512 13.734163 1.889170 -1.530072 17.732473 -4.688154 -0.557050 -6.958846 -4.645025 0.930683 -1.357818 2.654966 2.610123 -11.832612 -8.860526 -98.948866 -76.226543 134.526168 -7.707414 -26.367130 -14.498213 -7.064492 -1.725387 0.451299 -1.132185 -9.636119 8.790328 50.993619 -63.368671 -92.294626 1.497625 -10.020765 8.133545 2.461485 -63.133780 9.487037 164.542136 86.543423 163.557846 -13.149036 -22.074837 11.575790 0.025796 0.245166 -0.326224 2.806630 -61.838584 -3.334920 119.472190 77.902486 117.716670 -6.593834 -19.572082 -0.707865 -0.019241 0.095379 0.038070
